<svg width="242" height="154" viewBox="0 0 242 154" fill="none" xmlns="http://www.w3.org/2000/svg">
<g clip-path="url(#clip0_110_5)">
<rect width="242" height="154" fill="url(#paint0_linear_110_5)"/>
<rect y="120.333" width="242" height="33.6667" fill="white" fill-opacity="0.15"/>
<path d="M68.9168 134.913C69.3812 134.913 69.7886 135.003 70.1391 135.185C70.4938 135.367 70.7661 135.626 70.9561 135.964C71.1503 136.298 71.2474 136.686 71.2474 137.129C71.2474 137.573 71.1503 137.961 70.9561 138.295C70.7661 138.624 70.4938 138.879 70.1391 139.061C69.7886 139.243 69.3812 139.333 68.9168 139.333H67.3714V134.913H68.9168ZM68.8851 138.58C69.3495 138.58 69.7084 138.453 69.9618 138.2C70.2151 137.946 70.3418 137.59 70.3418 137.129C70.3418 136.669 70.2151 136.31 69.9618 136.053C69.7084 135.791 69.3495 135.66 68.8851 135.66H68.2581V138.58H68.8851ZM75.1728 137.503C75.1728 137.63 75.1644 137.744 75.1475 137.845H72.5825C72.6036 138.098 72.6923 138.297 72.8485 138.44C73.0047 138.584 73.1968 138.656 73.4248 138.656C73.7541 138.656 73.9885 138.514 74.1278 138.231H75.0841C74.9828 138.569 74.7886 138.848 74.5015 139.067C74.2144 139.283 73.8618 139.39 73.4438 139.39C73.106 139.39 72.802 139.316 72.5318 139.169C72.2658 139.017 72.0568 138.803 71.9048 138.529C71.757 138.255 71.6831 137.938 71.6831 137.579C71.6831 137.216 71.757 136.897 71.9048 136.623C72.0526 136.348 72.2595 136.137 72.5255 135.989C72.7915 135.842 73.0976 135.768 73.4438 135.768C73.7774 135.768 74.075 135.839 74.3368 135.983C74.6028 136.127 74.8076 136.331 74.9511 136.597C75.0989 136.859 75.1728 137.161 75.1728 137.503ZM74.2545 137.25C74.2503 137.022 74.1679 136.84 74.0075 136.705C73.847 136.566 73.6507 136.496 73.4185 136.496C73.1989 136.496 73.0131 136.564 72.8611 136.699C72.7134 136.83 72.6226 137.013 72.5888 137.25H74.2545ZM77.1627 139.39C76.8755 139.39 76.618 139.34 76.39 139.238C76.162 139.133 75.9804 138.991 75.8453 138.814C75.7144 138.637 75.6427 138.44 75.63 138.225H76.523C76.5399 138.36 76.6053 138.472 76.7193 138.561C76.8375 138.649 76.9832 138.694 77.1563 138.694C77.3252 138.694 77.4561 138.66 77.549 138.592C77.6461 138.525 77.6947 138.438 77.6947 138.333C77.6947 138.219 77.6355 138.134 77.5173 138.079C77.4033 138.02 77.2197 137.957 76.9663 137.889C76.7045 137.826 76.4892 137.761 76.3203 137.693C76.1557 137.625 76.0121 137.522 75.8897 137.383C75.7714 137.243 75.7123 137.055 75.7123 136.819C75.7123 136.625 75.7672 136.447 75.877 136.287C75.991 136.127 76.1514 136 76.3583 135.907C76.5694 135.814 76.8164 135.768 77.0993 135.768C77.5173 135.768 77.8509 135.873 78.1 136.084C78.3491 136.291 78.4863 136.572 78.5117 136.927H77.663C77.6503 136.787 77.5912 136.678 77.4857 136.597C77.3843 136.513 77.2471 136.471 77.074 136.471C76.9135 136.471 76.789 136.5 76.7003 136.559C76.6159 136.618 76.5737 136.701 76.5737 136.806C76.5737 136.925 76.6328 137.015 76.751 137.079C76.8692 137.138 77.0529 137.199 77.302 137.262C77.5553 137.326 77.7643 137.391 77.929 137.459C78.0937 137.526 78.2351 137.632 78.3533 137.775C78.4758 137.915 78.5391 138.1 78.5433 138.333C78.5433 138.535 78.4863 138.717 78.3723 138.877C78.2625 139.038 78.1021 139.164 77.891 139.257C77.6841 139.346 77.4413 139.39 77.1627 139.39ZM79.7208 135.407C79.5646 135.407 79.4337 135.358 79.3282 135.261C79.2268 135.16 79.1762 135.035 79.1762 134.887C79.1762 134.74 79.2268 134.617 79.3282 134.52C79.4337 134.419 79.5646 134.368 79.7208 134.368C79.8771 134.368 80.0058 134.419 80.1072 134.52C80.2127 134.617 80.2655 134.74 80.2655 134.887C80.2655 135.035 80.2127 135.16 80.1072 135.261C80.0058 135.358 79.8771 135.407 79.7208 135.407ZM80.1578 135.825V139.333H79.2712V135.825H80.1578ZM82.4082 135.768C82.67 135.768 82.9001 135.82 83.0985 135.926C83.297 136.027 83.4532 136.16 83.5672 136.325V135.825H84.4602V139.359C84.4602 139.684 84.3948 139.973 84.2639 140.226C84.133 140.484 83.9366 140.687 83.6749 140.834C83.4131 140.986 83.0964 141.062 82.7249 141.062C82.2266 141.062 81.8171 140.946 81.4962 140.714C81.1795 140.482 81.0001 140.165 80.9579 139.764H81.8382C81.8846 139.924 81.9839 140.051 82.1359 140.144C82.2921 140.241 82.48 140.29 82.6995 140.29C82.9571 140.29 83.1661 140.212 83.3265 140.055C83.487 139.903 83.5672 139.671 83.5672 139.359V138.814C83.4532 138.979 83.2949 139.116 83.0922 139.226C82.8937 139.335 82.6657 139.39 82.4082 139.39C82.1126 139.39 81.8424 139.314 81.5975 139.162C81.3526 139.01 81.1584 138.797 81.0149 138.523C80.8755 138.244 80.8059 137.925 80.8059 137.566C80.8059 137.212 80.8755 136.897 81.0149 136.623C81.1584 136.348 81.3505 136.137 81.5912 135.989C81.8361 135.842 82.1084 135.768 82.4082 135.768ZM83.5672 137.579C83.5672 137.364 83.525 137.18 83.4405 137.028C83.3561 136.872 83.2421 136.754 83.0985 136.673C82.955 136.589 82.8009 136.547 82.6362 136.547C82.4715 136.547 82.3195 136.587 82.1802 136.667C82.0409 136.747 81.9269 136.865 81.8382 137.022C81.7537 137.174 81.7115 137.355 81.7115 137.566C81.7115 137.777 81.7537 137.963 81.8382 138.124C81.9269 138.28 82.0409 138.4 82.1802 138.485C82.3237 138.569 82.4757 138.611 82.6362 138.611C82.8009 138.611 82.955 138.571 83.0985 138.491C83.2421 138.407 83.3561 138.288 83.4405 138.136C83.525 137.98 83.5672 137.794 83.5672 137.579ZM87.2705 135.774C87.6885 135.774 88.0263 135.907 88.2838 136.173C88.5414 136.435 88.6702 136.802 88.6702 137.275V139.333H87.7835V137.395C87.7835 137.117 87.7138 136.903 87.5745 136.756C87.4352 136.604 87.2452 136.528 87.0045 136.528C86.7596 136.528 86.5654 136.604 86.4218 136.756C86.2825 136.903 86.2128 137.117 86.2128 137.395V139.333H85.3262V135.825H86.2128V136.262C86.3311 136.11 86.481 135.991 86.6625 135.907C86.8483 135.818 87.051 135.774 87.2705 135.774ZM92.775 137.503C92.775 137.63 92.7666 137.744 92.7497 137.845H90.1847C90.2058 138.098 90.2945 138.297 90.4507 138.44C90.6069 138.584 90.799 138.656 91.027 138.656C91.3564 138.656 91.5907 138.514 91.73 138.231H92.6864C92.585 138.569 92.3908 138.848 92.1037 139.067C91.8166 139.283 91.464 139.39 91.046 139.39C90.7082 139.39 90.4042 139.316 90.134 139.169C89.868 139.017 89.659 138.803 89.507 138.529C89.3592 138.255 89.2854 137.938 89.2854 137.579C89.2854 137.216 89.3592 136.897 89.507 136.623C89.6548 136.348 89.8617 136.137 90.1277 135.989C90.3937 135.842 90.6998 135.768 91.046 135.768C91.3796 135.768 91.6772 135.839 91.939 135.983C92.205 136.127 92.4098 136.331 92.5534 136.597C92.7011 136.859 92.775 137.161 92.775 137.503ZM91.8567 137.25C91.8525 137.022 91.7701 136.84 91.6097 136.705C91.4492 136.566 91.2529 136.496 91.0207 136.496C90.8011 136.496 90.6154 136.564 90.4634 136.699C90.3156 136.83 90.2248 137.013 90.191 137.25H91.8567ZM93.1942 137.566C93.1942 137.212 93.2639 136.897 93.4032 136.623C93.5468 136.348 93.741 136.137 93.9859 135.989C94.2308 135.842 94.5031 135.768 94.8029 135.768C95.0309 135.768 95.2483 135.818 95.4552 135.92C95.6621 136.017 95.8268 136.148 95.9492 136.312V134.647H96.8485V139.333H95.9492V138.814C95.8394 138.987 95.6853 139.126 95.4869 139.232C95.2884 139.338 95.0583 139.39 94.7965 139.39C94.501 139.39 94.2308 139.314 93.9859 139.162C93.741 139.01 93.5468 138.797 93.4032 138.523C93.2639 138.244 93.1942 137.925 93.1942 137.566ZM95.9555 137.579C95.9555 137.364 95.9133 137.18 95.8289 137.028C95.7444 136.872 95.6304 136.754 95.4869 136.673C95.3433 136.589 95.1892 136.547 95.0245 136.547C94.8599 136.547 94.7079 136.587 94.5685 136.667C94.4292 136.747 94.3152 136.865 94.2265 137.022C94.1421 137.174 94.0999 137.355 94.0999 137.566C94.0999 137.777 94.1421 137.963 94.2265 138.124C94.3152 138.28 94.4292 138.4 94.5685 138.485C94.7121 138.569 94.8641 138.611 95.0245 138.611C95.1892 138.611 95.3433 138.571 95.4869 138.491C95.6304 138.407 95.7444 138.288 95.8289 138.136C95.9133 137.98 95.9555 137.794 95.9555 137.579ZM98.9956 137.566C98.9956 137.212 99.0653 136.897 99.2046 136.623C99.3482 136.348 99.5403 136.137 99.781 135.989C100.026 135.842 100.298 135.768 100.598 135.768C100.86 135.768 101.088 135.82 101.282 135.926C101.48 136.032 101.639 136.165 101.757 136.325V135.825H102.65V139.333H101.757V138.82C101.643 138.985 101.485 139.122 101.282 139.232C101.084 139.338 100.853 139.39 100.592 139.39C100.296 139.39 100.026 139.314 99.781 139.162C99.5403 139.01 99.3482 138.797 99.2046 138.523C99.0653 138.244 98.9956 137.925 98.9956 137.566ZM101.757 137.579C101.757 137.364 101.715 137.18 101.63 137.028C101.546 136.872 101.432 136.754 101.288 136.673C101.145 136.589 100.991 136.547 100.826 136.547C100.661 136.547 100.509 136.587 100.37 136.667C100.231 136.747 100.117 136.865 100.028 137.022C99.9435 137.174 99.9013 137.355 99.9013 137.566C99.9013 137.777 99.9435 137.963 100.028 138.124C100.117 138.28 100.231 138.4 100.37 138.485C100.514 138.569 100.666 138.611 100.826 138.611C100.991 138.611 101.145 138.571 101.288 138.491C101.432 138.407 101.546 138.288 101.63 138.136C101.715 137.98 101.757 137.794 101.757 137.579ZM105.46 135.774C105.878 135.774 106.216 135.907 106.474 136.173C106.731 136.435 106.86 136.802 106.86 137.275V139.333H105.973V137.395C105.973 137.117 105.904 136.903 105.764 136.756C105.625 136.604 105.435 136.528 105.194 136.528C104.949 136.528 104.755 136.604 104.612 136.756C104.472 136.903 104.403 137.117 104.403 137.395V139.333H103.516V135.825H104.403V136.262C104.521 136.11 104.671 135.991 104.852 135.907C105.038 135.818 105.241 135.774 105.46 135.774ZM107.475 137.566C107.475 137.212 107.545 136.897 107.684 136.623C107.828 136.348 108.022 136.137 108.267 135.989C108.512 135.842 108.784 135.768 109.084 135.768C109.312 135.768 109.529 135.818 109.736 135.92C109.943 136.017 110.108 136.148 110.23 136.312V134.647H111.129V139.333H110.23V138.814C110.12 138.987 109.966 139.126 109.768 139.232C109.569 139.338 109.339 139.39 109.077 139.39C108.782 139.39 108.512 139.314 108.267 139.162C108.022 139.01 107.828 138.797 107.684 138.523C107.545 138.244 107.475 137.925 107.475 137.566ZM110.236 137.579C110.236 137.364 110.194 137.18 110.11 137.028C110.025 136.872 109.911 136.754 109.768 136.673C109.624 136.589 109.47 136.547 109.305 136.547C109.141 136.547 108.989 136.587 108.849 136.667C108.71 136.747 108.596 136.865 108.507 137.022C108.423 137.174 108.381 137.355 108.381 137.566C108.381 137.777 108.423 137.963 108.507 138.124C108.596 138.28 108.71 138.4 108.849 138.485C108.993 138.569 109.145 138.611 109.305 138.611C109.47 138.611 109.624 138.571 109.768 138.491C109.911 138.407 110.025 138.288 110.11 138.136C110.194 137.98 110.236 137.794 110.236 137.579ZM115.05 134.913C115.514 134.913 115.922 135.003 116.272 135.185C116.627 135.367 116.899 135.626 117.089 135.964C117.283 136.298 117.381 136.686 117.381 137.129C117.381 137.573 117.283 137.961 117.089 138.295C116.899 138.624 116.627 138.879 116.272 139.061C115.922 139.243 115.514 139.333 115.05 139.333H113.505V134.913H115.05ZM115.018 138.58C115.483 138.58 115.842 138.453 116.095 138.2C116.348 137.946 116.475 137.59 116.475 137.129C116.475 136.669 116.348 136.31 116.095 136.053C115.842 135.791 115.483 135.66 115.018 135.66H114.391V138.58H115.018ZM121.306 137.503C121.306 137.63 121.298 137.744 121.281 137.845H118.716C118.737 138.098 118.825 138.297 118.982 138.44C119.138 138.584 119.33 138.656 119.558 138.656C119.887 138.656 120.122 138.514 120.261 138.231H121.217C121.116 138.569 120.922 138.848 120.635 139.067C120.348 139.283 119.995 139.39 119.577 139.39C119.239 139.39 118.935 139.316 118.665 139.169C118.399 139.017 118.19 138.803 118.038 138.529C117.89 138.255 117.816 137.938 117.816 137.579C117.816 137.216 117.89 136.897 118.038 136.623C118.186 136.348 118.393 136.137 118.659 135.989C118.925 135.842 119.231 135.768 119.577 135.768C119.911 135.768 120.208 135.839 120.47 135.983C120.736 136.127 120.941 136.331 121.084 136.597C121.232 136.859 121.306 137.161 121.306 137.503ZM120.388 137.25C120.383 137.022 120.301 136.84 120.141 136.705C119.98 136.566 119.784 136.496 119.552 136.496C119.332 136.496 119.146 136.564 118.994 136.699C118.847 136.83 118.756 137.013 118.722 137.25H120.388ZM123.416 138.516L124.303 135.825H125.246L123.948 139.333H122.871L121.579 135.825H122.529L123.416 138.516ZM129.006 137.503C129.006 137.63 128.998 137.744 128.981 137.845H126.416C126.437 138.098 126.526 138.297 126.682 138.44C126.838 138.584 127.03 138.656 127.258 138.656C127.587 138.656 127.822 138.514 127.961 138.231H128.917C128.816 138.569 128.622 138.848 128.335 139.067C128.048 139.283 127.695 139.39 127.277 139.39C126.939 139.39 126.635 139.316 126.365 139.169C126.099 139.017 125.89 138.803 125.738 138.529C125.59 138.255 125.516 137.938 125.516 137.579C125.516 137.216 125.59 136.897 125.738 136.623C125.886 136.348 126.093 136.137 126.359 135.989C126.625 135.842 126.931 135.768 127.277 135.768C127.611 135.768 127.908 135.839 128.17 135.983C128.436 136.127 128.641 136.331 128.784 136.597C128.932 136.859 129.006 137.161 129.006 137.503ZM128.088 137.25C128.084 137.022 128.001 136.84 127.841 136.705C127.68 136.566 127.484 136.496 127.252 136.496C127.032 136.496 126.846 136.564 126.694 136.699C126.547 136.83 126.456 137.013 126.422 137.25H128.088ZM130.54 134.647V139.333H129.653V134.647H130.54ZM132.974 139.39C132.636 139.39 132.332 139.316 132.062 139.169C131.792 139.017 131.579 138.803 131.422 138.529C131.27 138.255 131.194 137.938 131.194 137.579C131.194 137.22 131.272 136.903 131.429 136.629C131.589 136.355 131.807 136.143 132.081 135.996C132.355 135.844 132.662 135.768 132.999 135.768C133.337 135.768 133.643 135.844 133.918 135.996C134.192 136.143 134.407 136.355 134.564 136.629C134.724 136.903 134.804 137.22 134.804 137.579C134.804 137.938 134.722 138.255 134.557 138.529C134.397 138.803 134.177 139.017 133.899 139.169C133.624 139.316 133.316 139.39 132.974 139.39ZM132.974 138.618C133.134 138.618 133.284 138.58 133.424 138.504C133.567 138.423 133.681 138.305 133.766 138.149C133.85 137.993 133.892 137.803 133.892 137.579C133.892 137.245 133.804 136.99 133.626 136.813C133.453 136.631 133.24 136.54 132.987 136.54C132.733 136.54 132.52 136.631 132.347 136.813C132.178 136.99 132.094 137.245 132.094 137.579C132.094 137.913 132.176 138.17 132.341 138.352C132.51 138.529 132.721 138.618 132.974 138.618ZM136.341 136.331C136.455 136.171 136.612 136.038 136.81 135.932C137.013 135.823 137.243 135.768 137.5 135.768C137.8 135.768 138.07 135.842 138.311 135.989C138.556 136.137 138.748 136.348 138.887 136.623C139.031 136.893 139.103 137.207 139.103 137.566C139.103 137.925 139.031 138.244 138.887 138.523C138.748 138.797 138.556 139.01 138.311 139.162C138.07 139.314 137.8 139.39 137.5 139.39C137.243 139.39 137.015 139.338 136.816 139.232C136.622 139.126 136.464 138.993 136.341 138.833V141.005H135.455V135.825H136.341V136.331ZM138.197 137.566C138.197 137.355 138.153 137.174 138.064 137.022C137.98 136.865 137.866 136.747 137.722 136.667C137.583 136.587 137.431 136.547 137.266 136.547C137.106 136.547 136.954 136.589 136.81 136.673C136.671 136.754 136.557 136.872 136.468 137.028C136.384 137.184 136.341 137.368 136.341 137.579C136.341 137.79 136.384 137.974 136.468 138.13C136.557 138.286 136.671 138.407 136.81 138.491C136.954 138.571 137.106 138.611 137.266 138.611C137.431 138.611 137.583 138.569 137.722 138.485C137.866 138.4 137.98 138.28 138.064 138.124C138.153 137.967 138.197 137.782 138.197 137.566ZM143.009 137.503C143.009 137.63 143 137.744 142.983 137.845H140.418C140.44 138.098 140.528 138.297 140.684 138.44C140.841 138.584 141.033 138.656 141.261 138.656C141.59 138.656 141.824 138.514 141.964 138.231H142.92C142.819 138.569 142.625 138.848 142.337 139.067C142.05 139.283 141.698 139.39 141.28 139.39C140.942 139.39 140.638 139.316 140.368 139.169C140.102 139.017 139.893 138.803 139.741 138.529C139.593 138.255 139.519 137.938 139.519 137.579C139.519 137.216 139.593 136.897 139.741 136.623C139.889 136.348 140.095 136.137 140.361 135.989C140.627 135.842 140.934 135.768 141.28 135.768C141.613 135.768 141.911 135.839 142.173 135.983C142.439 136.127 142.644 136.331 142.787 136.597C142.935 136.859 143.009 137.161 143.009 137.503ZM142.09 137.25C142.086 137.022 142.004 136.84 141.843 136.705C141.683 136.566 141.487 136.496 141.254 136.496C141.035 136.496 140.849 136.564 140.697 136.699C140.549 136.83 140.459 137.013 140.425 137.25H142.09ZM143.428 137.566C143.428 137.212 143.498 136.897 143.637 136.623C143.78 136.348 143.975 136.137 144.22 135.989C144.464 135.842 144.737 135.768 145.037 135.768C145.265 135.768 145.482 135.818 145.689 135.92C145.896 136.017 146.06 136.148 146.183 136.312V134.647H147.082V139.333H146.183V138.814C146.073 138.987 145.919 139.126 145.721 139.232C145.522 139.338 145.292 139.39 145.03 139.39C144.735 139.39 144.464 139.314 144.22 139.162C143.975 139.01 143.78 138.797 143.637 138.523C143.498 138.244 143.428 137.925 143.428 137.566ZM146.189 137.579C146.189 137.364 146.147 137.18 146.063 137.028C145.978 136.872 145.864 136.754 145.721 136.673C145.577 136.589 145.423 136.547 145.258 136.547C145.094 136.547 144.942 136.587 144.802 136.667C144.663 136.747 144.549 136.865 144.46 137.022C144.376 137.174 144.334 137.355 144.334 137.566C144.334 137.777 144.376 137.963 144.46 138.124C144.549 138.28 144.663 138.4 144.802 138.485C144.946 138.569 145.098 138.611 145.258 138.611C145.423 138.611 145.577 138.571 145.721 138.491C145.864 138.407 145.978 138.288 146.063 138.136C146.147 137.98 146.189 137.794 146.189 137.579ZM150.344 136.338C150.458 136.169 150.614 136.032 150.813 135.926C151.015 135.82 151.245 135.768 151.503 135.768C151.803 135.768 152.073 135.842 152.314 135.989C152.559 136.137 152.751 136.348 152.89 136.623C153.034 136.893 153.105 137.207 153.105 137.566C153.105 137.925 153.034 138.244 152.89 138.523C152.751 138.797 152.559 139.01 152.314 139.162C152.073 139.314 151.803 139.39 151.503 139.39C151.241 139.39 151.011 139.34 150.813 139.238C150.618 139.133 150.462 138.998 150.344 138.833V139.333H149.457V134.647H150.344V136.338ZM152.2 137.566C152.2 137.355 152.155 137.174 152.067 137.022C151.982 136.865 151.868 136.747 151.725 136.667C151.585 136.587 151.433 136.547 151.269 136.547C151.108 136.547 150.956 136.589 150.813 136.673C150.673 136.754 150.559 136.872 150.471 137.028C150.386 137.184 150.344 137.368 150.344 137.579C150.344 137.79 150.386 137.974 150.471 138.13C150.559 138.286 150.673 138.407 150.813 138.491C150.956 138.571 151.108 138.611 151.269 138.611C151.433 138.611 151.585 138.569 151.725 138.485C151.868 138.4 151.982 138.28 152.067 138.124C152.155 137.967 152.2 137.782 152.2 137.566ZM157.106 135.825L154.934 140.993H153.99L154.75 139.245L153.344 135.825H154.339L155.244 138.276L156.163 135.825H157.106ZM161.823 134.913V135.628H159.98V136.762H161.392V137.465H159.98V139.333H159.093V134.913H161.823ZM163.338 134.647V139.333H162.452V134.647H163.338ZM167.476 137.503C167.476 137.63 167.468 137.744 167.451 137.845H164.886C164.907 138.098 164.996 138.297 165.152 138.44C165.308 138.584 165.5 138.656 165.728 138.656C166.058 138.656 166.292 138.514 166.431 138.231H167.388C167.286 138.569 167.092 138.848 166.805 139.067C166.518 139.283 166.165 139.39 165.747 139.39C165.409 139.39 165.105 139.316 164.835 139.169C164.569 139.017 164.36 138.803 164.208 138.529C164.06 138.255 163.987 137.938 163.987 137.579C163.987 137.216 164.06 136.897 164.208 136.623C164.356 136.348 164.563 136.137 164.829 135.989C165.095 135.842 165.401 135.768 165.747 135.768C166.081 135.768 166.378 135.839 166.64 135.983C166.906 136.127 167.111 136.331 167.255 136.597C167.402 136.859 167.476 137.161 167.476 137.503ZM166.558 137.25C166.554 137.022 166.471 136.84 166.311 136.705C166.15 136.566 165.954 136.496 165.722 136.496C165.502 136.496 165.317 136.564 165.165 136.699C165.017 136.83 164.926 137.013 164.892 137.25H166.558ZM170.061 139.333L169.339 138.244L168.7 139.333H167.75L168.896 137.573L167.737 135.825H168.738L169.453 136.908L170.099 135.825H171.049L169.897 137.573L171.062 139.333H170.061ZM171.316 137.566C171.316 137.212 171.385 136.897 171.525 136.623C171.668 136.348 171.86 136.137 172.101 135.989C172.346 135.842 172.618 135.768 172.918 135.768C173.18 135.768 173.408 135.82 173.602 135.926C173.8 136.032 173.959 136.165 174.077 136.325V135.825H174.97V139.333H174.077V138.82C173.963 138.985 173.805 139.122 173.602 139.232C173.404 139.338 173.173 139.39 172.912 139.39C172.616 139.39 172.346 139.314 172.101 139.162C171.86 139.01 171.668 138.797 171.525 138.523C171.385 138.244 171.316 137.925 171.316 137.566ZM174.077 137.579C174.077 137.364 174.035 137.18 173.95 137.028C173.866 136.872 173.752 136.754 173.608 136.673C173.465 136.589 173.311 136.547 173.146 136.547C172.981 136.547 172.829 136.587 172.69 136.667C172.551 136.747 172.437 136.865 172.348 137.022C172.264 137.174 172.221 137.355 172.221 137.566C172.221 137.777 172.264 137.963 172.348 138.124C172.437 138.28 172.551 138.4 172.69 138.485C172.834 138.569 172.986 138.611 173.146 138.611C173.311 138.611 173.465 138.571 173.608 138.491C173.752 138.407 173.866 138.288 173.95 138.136C174.035 137.98 174.077 137.794 174.077 137.579Z" fill="white"/>
<path d="M99.7894 51.783V56.4528M87.3365 53.7288V56.4528C87.3365 57.0721 87.8285 57.666 88.7043 58.1039C89.5801 58.5417 90.7678 58.7877 92.0063 58.7877C93.2449 58.7877 94.4326 58.5417 95.3084 58.1039C96.1842 57.666 96.6762 57.0721 96.6762 56.4528V53.7288M99.338 52.5006C99.4773 52.4392 99.5955 52.3382 99.678 52.2102C99.7605 52.0822 99.8036 51.9328 99.8021 51.7805C99.8005 51.6282 99.7543 51.4797 99.6692 51.3535C99.584 51.2272 99.4637 51.1287 99.3232 51.0701L92.6523 48.0316C92.4495 47.9391 92.2292 47.8912 92.0063 47.8912C91.7834 47.8912 91.5632 47.9391 91.3604 48.0316L84.6903 51.067C84.5517 51.1277 84.4339 51.2274 84.3511 51.354C84.2683 51.4806 84.2242 51.6286 84.2242 51.7799C84.2242 51.9312 84.2683 52.0792 84.3511 52.2058C84.4339 52.3324 84.5517 52.4321 84.6903 52.4928L91.3604 55.5344C91.5632 55.6269 91.7834 55.6748 92.0063 55.6748C92.2292 55.6748 92.4495 55.6269 92.6523 55.5344L99.338 52.5006Z" stroke="white" stroke-width="1.5566" stroke-linecap="round" stroke-linejoin="round"/>
<path d="M86.5271 72.408C85.9211 72.408 85.3732 72.3042 84.8834 72.0966C84.4018 71.8891 84.02 71.5902 83.7377 71.2C83.4554 70.8099 83.3101 70.3491 83.3018 69.8178H85.1698C85.1947 70.1748 85.3192 70.457 85.5434 70.6646C85.7758 70.8721 86.0913 70.9759 86.4898 70.9759C86.8966 70.9759 87.2162 70.8804 87.4486 70.6895C87.6811 70.4902 87.7973 70.2329 87.7973 69.9174C87.7973 69.66 87.7184 69.4483 87.5607 69.2823C87.403 69.1163 87.2037 68.9876 86.963 68.8963C86.7305 68.7966 86.4067 68.6887 85.9917 68.5725C85.4271 68.4065 84.9664 68.2446 84.6094 68.0868C84.2607 67.9208 83.9577 67.6759 83.7003 67.3521C83.4513 67.02 83.3267 66.58 83.3267 66.0321C83.3267 65.5174 83.4554 65.0691 83.7128 64.6872C83.9701 64.3053 84.3313 64.0148 84.7962 63.8155C85.2611 63.608 85.7924 63.5042 86.3901 63.5042C87.2867 63.5042 88.0132 63.7242 88.5694 64.1642C89.1339 64.5959 89.4452 65.2019 89.5034 65.9823H87.5856C87.569 65.6834 87.4403 65.4385 87.1996 65.2476C86.9671 65.0483 86.6558 64.9487 86.2656 64.9487C85.9252 64.9487 85.6513 65.0359 85.4437 65.2102C85.2445 65.3846 85.1449 65.6378 85.1449 65.9699C85.1449 66.2023 85.2196 66.3974 85.369 66.5551C85.5267 66.7046 85.7177 66.8291 85.9418 66.9287C86.1743 67.02 86.4981 67.128 86.9132 67.2525C87.4777 67.4185 87.9384 67.5846 88.2954 67.7506C88.6524 67.9166 88.9596 68.1657 89.2169 68.4978C89.4743 68.8299 89.603 69.2657 89.603 69.8053C89.603 70.2702 89.4826 70.7019 89.2418 71.1004C89.0011 71.4989 88.6483 71.8185 88.1834 72.0593C87.7184 72.2917 87.1664 72.408 86.5271 72.408ZM90.6661 68.8714C90.6661 68.1574 90.8114 67.5348 91.102 67.0034C91.3926 66.4638 91.7952 66.0487 92.3099 65.7582C92.8246 65.4593 93.4141 65.3099 94.0782 65.3099C94.9333 65.3099 95.639 65.5257 96.1952 65.9574C96.7597 66.3808 97.1375 66.9785 97.3284 67.7506H95.448C95.3484 67.4517 95.1782 67.2193 94.9375 67.0533C94.705 66.8789 94.4144 66.7917 94.0658 66.7917C93.5676 66.7917 93.1733 66.9744 92.8827 67.3397C92.5922 67.6966 92.4469 68.2072 92.4469 68.8714C92.4469 69.5272 92.5922 70.0378 92.8827 70.4031C93.1733 70.76 93.5676 70.9385 94.0658 70.9385C94.7714 70.9385 95.2322 70.6231 95.448 69.9921H97.3284C97.1375 70.7393 96.7597 71.3329 96.1952 71.7729C95.6307 72.2129 94.925 72.4329 94.0782 72.4329C93.4141 72.4329 92.8246 72.2876 92.3099 71.997C91.7952 71.6982 91.3926 71.2831 91.102 70.7517C90.8114 70.2121 90.6661 69.5853 90.6661 68.8714ZM102.491 65.3223C103.014 65.3223 103.479 65.4385 103.886 65.671C104.292 65.8951 104.608 66.2314 104.832 66.6797C105.064 67.1197 105.181 67.651 105.181 68.2736V72.3208H103.437V68.5102C103.437 67.9623 103.3 67.5431 103.026 67.2525C102.752 66.9536 102.379 66.8042 101.906 66.8042C101.424 66.8042 101.042 66.9536 100.76 67.2525C100.486 67.5431 100.349 67.9623 100.349 68.5102V72.3208H98.6056V63.1057H100.349V66.2812C100.573 65.9823 100.872 65.7499 101.246 65.5838C101.619 65.4095 102.034 65.3223 102.491 65.3223ZM109.902 72.4329C109.238 72.4329 108.64 72.2876 108.109 71.997C107.577 71.6982 107.158 71.2789 106.851 70.7393C106.552 70.1997 106.403 69.577 106.403 68.8714C106.403 68.1657 106.556 67.5431 106.863 67.0034C107.179 66.4638 107.606 66.0487 108.146 65.7582C108.686 65.4593 109.288 65.3099 109.952 65.3099C110.616 65.3099 111.218 65.4593 111.757 65.7582C112.297 66.0487 112.72 66.4638 113.028 67.0034C113.343 67.5431 113.501 68.1657 113.501 68.8714C113.501 69.577 113.339 70.1997 113.015 70.7393C112.7 71.2789 112.268 71.6982 111.72 71.997C111.18 72.2876 110.574 72.4329 109.902 72.4329ZM109.902 70.9136C110.217 70.9136 110.512 70.8389 110.786 70.6895C111.068 70.5317 111.293 70.2993 111.459 69.9921C111.625 69.685 111.708 69.3114 111.708 68.8714C111.708 68.2155 111.533 67.7133 111.185 67.3646C110.844 67.0076 110.425 66.8291 109.927 66.8291C109.429 66.8291 109.01 67.0076 108.669 67.3646C108.337 67.7133 108.171 68.2155 108.171 68.8714C108.171 69.5272 108.333 70.0336 108.657 70.3906C108.989 70.7393 109.404 70.9136 109.902 70.9136ZM117.843 72.4329C117.179 72.4329 116.581 72.2876 116.05 71.997C115.519 71.6982 115.099 71.2789 114.792 70.7393C114.493 70.1997 114.344 69.577 114.344 68.8714C114.344 68.1657 114.497 67.5431 114.805 67.0034C115.12 66.4638 115.548 66.0487 116.087 65.7582C116.627 65.4593 117.229 65.3099 117.893 65.3099C118.557 65.3099 119.159 65.4593 119.699 65.7582C120.238 66.0487 120.662 66.4638 120.969 67.0034C121.284 67.5431 121.442 68.1657 121.442 68.8714C121.442 69.577 121.28 70.1997 120.956 70.7393C120.641 71.2789 120.209 71.6982 119.661 71.997C119.122 72.2876 118.516 72.4329 117.843 72.4329ZM117.843 70.9136C118.159 70.9136 118.453 70.8389 118.727 70.6895C119.009 70.5317 119.234 70.2993 119.4 69.9921C119.566 69.685 119.649 69.3114 119.649 68.8714C119.649 68.2155 119.474 67.7133 119.126 67.3646C118.785 67.0076 118.366 66.8291 117.868 66.8291C117.37 66.8291 116.951 67.0076 116.61 67.3646C116.278 67.7133 116.112 68.2155 116.112 68.8714C116.112 69.5272 116.274 70.0336 116.598 70.3906C116.93 70.7393 117.345 70.9136 117.843 70.9136ZM124.464 63.1057V72.3208H122.721V63.1057H124.464ZM132.155 72.408C131.549 72.408 131.001 72.3042 130.511 72.0966C130.03 71.8891 129.648 71.5902 129.366 71.2C129.083 70.8099 128.938 70.3491 128.93 69.8178H130.798C130.823 70.1748 130.947 70.457 131.171 70.6646C131.404 70.8721 131.719 70.9759 132.118 70.9759C132.525 70.9759 132.844 70.8804 133.077 70.6895C133.309 70.4902 133.425 70.2329 133.425 69.9174C133.425 69.66 133.346 69.4483 133.189 69.2823C133.031 69.1163 132.832 68.9876 132.591 68.8963C132.358 68.7966 132.035 68.6887 131.62 68.5725C131.055 68.4065 130.594 68.2446 130.237 68.0868C129.889 67.9208 129.586 67.6759 129.328 67.3521C129.079 67.02 128.955 66.58 128.955 66.0321C128.955 65.5174 129.083 65.0691 129.341 64.6872C129.598 64.3053 129.959 64.0148 130.424 63.8155C130.889 63.608 131.42 63.5042 132.018 63.5042C132.915 63.5042 133.641 63.7242 134.197 64.1642C134.762 64.5959 135.073 65.2019 135.131 65.9823H133.214C133.197 65.6834 133.068 65.4385 132.828 65.2476C132.595 65.0483 132.284 64.9487 131.894 64.9487C131.553 64.9487 131.279 65.0359 131.072 65.2102C130.872 65.3846 130.773 65.6378 130.773 65.9699C130.773 66.2023 130.848 66.3974 130.997 66.5551C131.155 66.7046 131.346 66.8291 131.57 66.9287C131.802 67.02 132.126 67.128 132.541 67.2525C133.106 67.4185 133.566 67.5846 133.923 67.7506C134.28 67.9166 134.588 68.1657 134.845 68.4978C135.102 68.8299 135.231 69.2657 135.231 69.8053C135.231 70.2702 135.111 70.7019 134.87 71.1004C134.629 71.4989 134.276 71.8185 133.811 72.0593C133.346 72.2917 132.794 72.408 132.155 72.408ZM143.342 65.4219L139.071 75.5834H137.216L138.71 72.1465L135.945 65.4219H137.901L139.681 70.2412L141.487 65.4219H143.342ZM148.105 65.3223C148.927 65.3223 149.591 65.5838 150.098 66.1068C150.604 66.6216 150.857 67.3438 150.857 68.2736V72.3208H149.114V68.5102C149.114 67.9623 148.977 67.5431 148.703 67.2525C148.429 66.9536 148.055 66.8042 147.582 66.8042C147.101 66.8042 146.719 66.9536 146.437 67.2525C146.163 67.5431 146.026 67.9623 146.026 68.5102V72.3208H144.282V65.4219H146.026V66.2812C146.258 65.9823 146.553 65.7499 146.91 65.5838C147.275 65.4095 147.674 65.3223 148.105 65.3223ZM152.067 68.8714C152.067 68.1574 152.212 67.5348 152.503 67.0034C152.793 66.4638 153.196 66.0487 153.711 65.7582C154.225 65.4593 154.815 65.3099 155.479 65.3099C156.334 65.3099 157.04 65.5257 157.596 65.9574C158.16 66.3808 158.538 66.9785 158.729 67.7506H156.849C156.749 67.4517 156.579 67.2193 156.338 67.0533C156.106 66.8789 155.815 66.7917 155.466 66.7917C154.968 66.7917 154.574 66.9744 154.283 67.3397C153.993 67.6966 153.848 68.2072 153.848 68.8714C153.848 69.5272 153.993 70.0378 154.283 70.4031C154.574 70.76 154.968 70.9385 155.466 70.9385C156.172 70.9385 156.633 70.6231 156.849 69.9921H158.729C158.538 70.7393 158.16 71.3329 157.596 71.7729C157.031 72.2129 156.326 72.4329 155.479 72.4329C154.815 72.4329 154.225 72.2876 153.711 71.997C153.196 71.6982 152.793 71.2831 152.503 70.7517C152.212 70.2121 152.067 69.5853 152.067 68.8714Z" fill="white"/>
</g>
<defs>
<linearGradient id="paint0_linear_110_5" x1="0" y1="0" x2="247.14" y2="145.255" gradientUnits="userSpaceOnUse">
<stop stop-color="#FE936B"/>
<stop offset="1" stop-color="#FC636C"/>
</linearGradient>
<clipPath id="clip0_110_5">
<rect width="242" height="154" fill="white"/>
</clipPath>
</defs>
</svg>
